<mxfile host="app.diagrams.net" modified="2024-06-13T09:36:15.713Z" agent="Mozilla/5.0 (X11; Linux x86_64; rv:126.0) Gecko/20100101 Firefox/126.0" etag="ju_D17-m-lyrewhhT9pW" version="24.5.4" type="github">
  <diagram id="C5RBs43oDa-KdzZeNtuy" name="Page-1">
    <mxGraphModel dx="1434" dy="768" grid="1" gridSize="10" guides="1" tooltips="1" connect="1" arrows="1" fold="1" page="1" pageScale="1" pageWidth="827" pageHeight="1169" math="0" shadow="0">
      <root>
        <mxCell id="WIyWlLk6GJQsqaUBKTNV-0" />
        <mxCell id="WIyWlLk6GJQsqaUBKTNV-1" parent="WIyWlLk6GJQsqaUBKTNV-0" />
        <mxCell id="YGjQhV7c1sGOkSGUrIg3-4" style="edgeStyle=orthogonalEdgeStyle;rounded=0;orthogonalLoop=1;jettySize=auto;html=1;" edge="1" parent="WIyWlLk6GJQsqaUBKTNV-1" source="WIyWlLk6GJQsqaUBKTNV-3" target="YGjQhV7c1sGOkSGUrIg3-0">
          <mxGeometry relative="1" as="geometry" />
        </mxCell>
        <mxCell id="WIyWlLk6GJQsqaUBKTNV-3" value="Start: Initialize MPI, P3DFFT, Parameters" style="rounded=1;whiteSpace=wrap;html=1;fontSize=12;glass=0;strokeWidth=1;shadow=0;" parent="WIyWlLk6GJQsqaUBKTNV-1" vertex="1">
          <mxGeometry x="10" y="30" width="120" height="40" as="geometry" />
        </mxCell>
        <mxCell id="YGjQhV7c1sGOkSGUrIg3-17" value="" style="edgeStyle=orthogonalEdgeStyle;rounded=0;orthogonalLoop=1;jettySize=auto;html=1;" edge="1" parent="WIyWlLk6GJQsqaUBKTNV-1" source="WIyWlLk6GJQsqaUBKTNV-10" target="YGjQhV7c1sGOkSGUrIg3-16">
          <mxGeometry relative="1" as="geometry" />
        </mxCell>
        <mxCell id="YGjQhV7c1sGOkSGUrIg3-19" value="&lt;div&gt;No&lt;/div&gt;" style="edgeLabel;html=1;align=center;verticalAlign=middle;resizable=0;points=[];" vertex="1" connectable="0" parent="YGjQhV7c1sGOkSGUrIg3-17">
          <mxGeometry x="-0.0753" y="-2" relative="1" as="geometry">
            <mxPoint x="-1" y="-6" as="offset" />
          </mxGeometry>
        </mxCell>
        <mxCell id="YGjQhV7c1sGOkSGUrIg3-26" value="" style="edgeStyle=orthogonalEdgeStyle;rounded=0;orthogonalLoop=1;jettySize=auto;html=1;" edge="1" parent="WIyWlLk6GJQsqaUBKTNV-1" source="WIyWlLk6GJQsqaUBKTNV-10" target="YGjQhV7c1sGOkSGUrIg3-25">
          <mxGeometry relative="1" as="geometry" />
        </mxCell>
        <mxCell id="YGjQhV7c1sGOkSGUrIg3-29" value="&lt;div&gt;Yes&lt;/div&gt;" style="edgeLabel;html=1;align=center;verticalAlign=middle;resizable=0;points=[];" vertex="1" connectable="0" parent="YGjQhV7c1sGOkSGUrIg3-26">
          <mxGeometry x="0.0244" y="1" relative="1" as="geometry">
            <mxPoint x="-5" y="-1" as="offset" />
          </mxGeometry>
        </mxCell>
        <mxCell id="WIyWlLk6GJQsqaUBKTNV-10" value="&lt;div&gt;Files read are in spectral space?&lt;/div&gt;" style="rhombus;whiteSpace=wrap;html=1;shadow=0;fontFamily=Helvetica;fontSize=12;align=center;strokeWidth=1;spacing=6;spacingTop=-4;rounded=1;" parent="WIyWlLk6GJQsqaUBKTNV-1" vertex="1">
          <mxGeometry x="310" width="139" height="100" as="geometry" />
        </mxCell>
        <mxCell id="YGjQhV7c1sGOkSGUrIg3-20" style="edgeStyle=orthogonalEdgeStyle;rounded=0;orthogonalLoop=1;jettySize=auto;html=1;" edge="1" parent="WIyWlLk6GJQsqaUBKTNV-1" source="YGjQhV7c1sGOkSGUrIg3-0" target="WIyWlLk6GJQsqaUBKTNV-10">
          <mxGeometry relative="1" as="geometry" />
        </mxCell>
        <mxCell id="YGjQhV7c1sGOkSGUrIg3-0" value="&lt;div&gt;Read Velocity Fields&lt;/div&gt;&lt;div&gt;Using MPI I/O.&lt;br&gt;&lt;/div&gt;" style="rounded=1;whiteSpace=wrap;html=1;" vertex="1" parent="WIyWlLk6GJQsqaUBKTNV-1">
          <mxGeometry x="160" y="30" width="120" height="40" as="geometry" />
        </mxCell>
        <mxCell id="YGjQhV7c1sGOkSGUrIg3-28" style="edgeStyle=orthogonalEdgeStyle;rounded=0;orthogonalLoop=1;jettySize=auto;html=1;entryX=0;entryY=1;entryDx=0;entryDy=0;" edge="1" parent="WIyWlLk6GJQsqaUBKTNV-1" source="YGjQhV7c1sGOkSGUrIg3-16" target="YGjQhV7c1sGOkSGUrIg3-25">
          <mxGeometry relative="1" as="geometry" />
        </mxCell>
        <mxCell id="YGjQhV7c1sGOkSGUrIg3-16" value="FFT to get u_i hats" style="rounded=1;whiteSpace=wrap;html=1;shadow=0;strokeWidth=1;spacing=6;spacingTop=-4;" vertex="1" parent="WIyWlLk6GJQsqaUBKTNV-1">
          <mxGeometry x="319.5" y="130" width="120" height="40" as="geometry" />
        </mxCell>
        <mxCell id="YGjQhV7c1sGOkSGUrIg3-31" value="" style="edgeStyle=orthogonalEdgeStyle;rounded=0;orthogonalLoop=1;jettySize=auto;html=1;" edge="1" parent="WIyWlLk6GJQsqaUBKTNV-1" source="YGjQhV7c1sGOkSGUrIg3-25" target="YGjQhV7c1sGOkSGUrIg3-30">
          <mxGeometry relative="1" as="geometry" />
        </mxCell>
        <mxCell id="YGjQhV7c1sGOkSGUrIg3-32" value="No" style="edgeLabel;html=1;align=center;verticalAlign=middle;resizable=0;points=[];" vertex="1" connectable="0" parent="YGjQhV7c1sGOkSGUrIg3-31">
          <mxGeometry x="-0.4634" y="-1" relative="1" as="geometry">
            <mxPoint x="8" y="-1" as="offset" />
          </mxGeometry>
        </mxCell>
        <mxCell id="YGjQhV7c1sGOkSGUrIg3-34" value="" style="edgeStyle=orthogonalEdgeStyle;rounded=0;orthogonalLoop=1;jettySize=auto;html=1;" edge="1" parent="WIyWlLk6GJQsqaUBKTNV-1" source="YGjQhV7c1sGOkSGUrIg3-25" target="YGjQhV7c1sGOkSGUrIg3-33">
          <mxGeometry relative="1" as="geometry" />
        </mxCell>
        <mxCell id="YGjQhV7c1sGOkSGUrIg3-35" value="&lt;div&gt;Yes&lt;/div&gt;" style="edgeLabel;html=1;align=center;verticalAlign=middle;resizable=0;points=[];" vertex="1" connectable="0" parent="YGjQhV7c1sGOkSGUrIg3-34">
          <mxGeometry x="-0.22" y="3" relative="1" as="geometry">
            <mxPoint x="-3" as="offset" />
          </mxGeometry>
        </mxCell>
        <mxCell id="YGjQhV7c1sGOkSGUrIg3-25" value="&lt;div&gt;Is it a decaying simulation?&lt;br&gt;&lt;/div&gt;" style="rhombus;whiteSpace=wrap;html=1;shadow=0;fontFamily=Helvetica;fontSize=12;align=center;strokeWidth=1;spacing=6;spacingTop=-4;rounded=1;" vertex="1" parent="WIyWlLk6GJQsqaUBKTNV-1">
          <mxGeometry x="510" width="139" height="100" as="geometry" />
        </mxCell>
        <mxCell id="YGjQhV7c1sGOkSGUrIg3-39" style="edgeStyle=orthogonalEdgeStyle;rounded=0;orthogonalLoop=1;jettySize=auto;html=1;entryX=1;entryY=0.5;entryDx=0;entryDy=0;" edge="1" parent="WIyWlLk6GJQsqaUBKTNV-1" source="YGjQhV7c1sGOkSGUrIg3-30" target="YGjQhV7c1sGOkSGUrIg3-33">
          <mxGeometry relative="1" as="geometry">
            <Array as="points">
              <mxPoint x="760" y="220" />
            </Array>
          </mxGeometry>
        </mxCell>
        <mxCell id="YGjQhV7c1sGOkSGUrIg3-30" value="&lt;div&gt;Setup forcing&lt;/div&gt;" style="rounded=1;whiteSpace=wrap;html=1;shadow=0;strokeWidth=1;spacing=6;spacingTop=-4;" vertex="1" parent="WIyWlLk6GJQsqaUBKTNV-1">
          <mxGeometry x="700" y="30" width="120" height="40" as="geometry" />
        </mxCell>
        <mxCell id="YGjQhV7c1sGOkSGUrIg3-38" value="" style="edgeStyle=orthogonalEdgeStyle;rounded=0;orthogonalLoop=1;jettySize=auto;html=1;" edge="1" parent="WIyWlLk6GJQsqaUBKTNV-1" source="YGjQhV7c1sGOkSGUrIg3-33" target="YGjQhV7c1sGOkSGUrIg3-37">
          <mxGeometry relative="1" as="geometry" />
        </mxCell>
        <mxCell id="YGjQhV7c1sGOkSGUrIg3-33" value="Dealias using Truncation" style="rounded=1;shadow=0;strokeWidth=1;spacing=6;spacingTop=-4;labelPosition=center;verticalLabelPosition=middle;align=center;verticalAlign=middle;labelBackgroundColor=none;whiteSpace=wrap;html=1;" vertex="1" parent="WIyWlLk6GJQsqaUBKTNV-1">
          <mxGeometry x="519.5" y="200" width="120" height="40" as="geometry" />
        </mxCell>
        <mxCell id="YGjQhV7c1sGOkSGUrIg3-41" value="" style="edgeStyle=orthogonalEdgeStyle;rounded=0;orthogonalLoop=1;jettySize=auto;html=1;" edge="1" parent="WIyWlLk6GJQsqaUBKTNV-1" source="YGjQhV7c1sGOkSGUrIg3-37" target="YGjQhV7c1sGOkSGUrIg3-40">
          <mxGeometry relative="1" as="geometry">
            <Array as="points">
              <mxPoint x="300" y="220" />
              <mxPoint x="300" y="150" />
            </Array>
          </mxGeometry>
        </mxCell>
        <mxCell id="YGjQhV7c1sGOkSGUrIg3-44" value="Yes" style="edgeLabel;html=1;align=center;verticalAlign=middle;resizable=0;points=[];" vertex="1" connectable="0" parent="YGjQhV7c1sGOkSGUrIg3-41">
          <mxGeometry x="0.7286" relative="1" as="geometry">
            <mxPoint x="9" as="offset" />
          </mxGeometry>
        </mxCell>
        <mxCell id="YGjQhV7c1sGOkSGUrIg3-45" style="edgeStyle=orthogonalEdgeStyle;rounded=0;orthogonalLoop=1;jettySize=auto;html=1;entryX=1;entryY=0.5;entryDx=0;entryDy=0;" edge="1" parent="WIyWlLk6GJQsqaUBKTNV-1" source="YGjQhV7c1sGOkSGUrIg3-37" target="YGjQhV7c1sGOkSGUrIg3-48">
          <mxGeometry relative="1" as="geometry">
            <mxPoint x="150" y="220" as="targetPoint" />
          </mxGeometry>
        </mxCell>
        <mxCell id="YGjQhV7c1sGOkSGUrIg3-47" value="No" style="edgeLabel;html=1;align=center;verticalAlign=middle;resizable=0;points=[];" vertex="1" connectable="0" parent="YGjQhV7c1sGOkSGUrIg3-45">
          <mxGeometry x="0.5521" relative="1" as="geometry">
            <mxPoint x="12" as="offset" />
          </mxGeometry>
        </mxCell>
        <mxCell id="YGjQhV7c1sGOkSGUrIg3-37" value="Phase shifting on?" style="rhombus;whiteSpace=wrap;html=1;rounded=1;shadow=0;strokeWidth=1;spacing=6;spacingTop=-4;" vertex="1" parent="WIyWlLk6GJQsqaUBKTNV-1">
          <mxGeometry x="339.5" y="180" width="80" height="80" as="geometry" />
        </mxCell>
        <mxCell id="YGjQhV7c1sGOkSGUrIg3-49" style="edgeStyle=orthogonalEdgeStyle;rounded=0;orthogonalLoop=1;jettySize=auto;html=1;entryX=0.5;entryY=0;entryDx=0;entryDy=0;" edge="1" parent="WIyWlLk6GJQsqaUBKTNV-1" source="YGjQhV7c1sGOkSGUrIg3-40" target="YGjQhV7c1sGOkSGUrIg3-48">
          <mxGeometry relative="1" as="geometry" />
        </mxCell>
        <mxCell id="YGjQhV7c1sGOkSGUrIg3-40" value="&lt;div&gt;Dealias using&lt;/div&gt;&lt;div&gt;phase shifting&lt;/div&gt;" style="whiteSpace=wrap;html=1;rounded=1;shadow=0;strokeWidth=1;spacing=6;spacingTop=-4;" vertex="1" parent="WIyWlLk6GJQsqaUBKTNV-1">
          <mxGeometry x="120" y="130" width="120" height="40" as="geometry" />
        </mxCell>
        <mxCell id="YGjQhV7c1sGOkSGUrIg3-53" value="" style="edgeStyle=orthogonalEdgeStyle;rounded=0;orthogonalLoop=1;jettySize=auto;html=1;" edge="1" parent="WIyWlLk6GJQsqaUBKTNV-1" source="YGjQhV7c1sGOkSGUrIg3-48" target="YGjQhV7c1sGOkSGUrIg3-52">
          <mxGeometry relative="1" as="geometry">
            <Array as="points">
              <mxPoint x="70" y="220" />
            </Array>
          </mxGeometry>
        </mxCell>
        <mxCell id="YGjQhV7c1sGOkSGUrIg3-48" value="FFT Inverse to get physical space u_i" style="rounded=1;whiteSpace=wrap;html=1;" vertex="1" parent="WIyWlLk6GJQsqaUBKTNV-1">
          <mxGeometry x="120" y="200" width="120" height="40" as="geometry" />
        </mxCell>
        <mxCell id="YGjQhV7c1sGOkSGUrIg3-55" value="" style="edgeStyle=orthogonalEdgeStyle;rounded=0;orthogonalLoop=1;jettySize=auto;html=1;" edge="1" parent="WIyWlLk6GJQsqaUBKTNV-1" source="YGjQhV7c1sGOkSGUrIg3-52" target="YGjQhV7c1sGOkSGUrIg3-54">
          <mxGeometry relative="1" as="geometry" />
        </mxCell>
        <mxCell id="YGjQhV7c1sGOkSGUrIg3-52" value="Get ω × u from the dealiased fields" style="whiteSpace=wrap;html=1;rounded=1;" vertex="1" parent="WIyWlLk6GJQsqaUBKTNV-1">
          <mxGeometry x="10" y="300" width="120" height="40" as="geometry" />
        </mxCell>
        <mxCell id="YGjQhV7c1sGOkSGUrIg3-57" value="" style="edgeStyle=orthogonalEdgeStyle;rounded=0;orthogonalLoop=1;jettySize=auto;html=1;" edge="1" parent="WIyWlLk6GJQsqaUBKTNV-1" source="YGjQhV7c1sGOkSGUrIg3-54" target="YGjQhV7c1sGOkSGUrIg3-56">
          <mxGeometry relative="1" as="geometry" />
        </mxCell>
        <mxCell id="YGjQhV7c1sGOkSGUrIg3-54" value="&lt;div&gt;FFT of the all the&lt;/div&gt;&lt;div&gt;non-linear terms&lt;/div&gt;" style="whiteSpace=wrap;html=1;rounded=1;" vertex="1" parent="WIyWlLk6GJQsqaUBKTNV-1">
          <mxGeometry x="160" y="300" width="120" height="40" as="geometry" />
        </mxCell>
        <mxCell id="YGjQhV7c1sGOkSGUrIg3-59" value="" style="edgeStyle=orthogonalEdgeStyle;rounded=0;orthogonalLoop=1;jettySize=auto;html=1;" edge="1" parent="WIyWlLk6GJQsqaUBKTNV-1" source="YGjQhV7c1sGOkSGUrIg3-56" target="YGjQhV7c1sGOkSGUrIg3-58">
          <mxGeometry relative="1" as="geometry" />
        </mxCell>
        <mxCell id="YGjQhV7c1sGOkSGUrIg3-56" value="&lt;div&gt;Get Forcing Coefficient&lt;/div&gt;&lt;div&gt;(0 if decaying)&lt;br&gt;&lt;/div&gt;" style="whiteSpace=wrap;html=1;rounded=1;" vertex="1" parent="WIyWlLk6GJQsqaUBKTNV-1">
          <mxGeometry x="319.5" y="300" width="130.5" height="40" as="geometry" />
        </mxCell>
        <mxCell id="YGjQhV7c1sGOkSGUrIg3-61" value="" style="edgeStyle=orthogonalEdgeStyle;rounded=0;orthogonalLoop=1;jettySize=auto;html=1;" edge="1" parent="WIyWlLk6GJQsqaUBKTNV-1" source="YGjQhV7c1sGOkSGUrIg3-58" target="YGjQhV7c1sGOkSGUrIg3-60">
          <mxGeometry relative="1" as="geometry" />
        </mxCell>
        <mxCell id="YGjQhV7c1sGOkSGUrIg3-58" value="Compute Rk Step" style="whiteSpace=wrap;html=1;rounded=1;" vertex="1" parent="WIyWlLk6GJQsqaUBKTNV-1">
          <mxGeometry x="490" y="300" width="120" height="40" as="geometry" />
        </mxCell>
        <mxCell id="YGjQhV7c1sGOkSGUrIg3-62" style="edgeStyle=orthogonalEdgeStyle;rounded=0;orthogonalLoop=1;jettySize=auto;html=1;entryX=0.5;entryY=1;entryDx=0;entryDy=0;" edge="1" parent="WIyWlLk6GJQsqaUBKTNV-1" source="YGjQhV7c1sGOkSGUrIg3-60" target="YGjQhV7c1sGOkSGUrIg3-33">
          <mxGeometry relative="1" as="geometry">
            <Array as="points">
              <mxPoint x="705" y="260" />
              <mxPoint x="580" y="260" />
            </Array>
          </mxGeometry>
        </mxCell>
        <mxCell id="YGjQhV7c1sGOkSGUrIg3-63" value="No" style="edgeLabel;html=1;align=center;verticalAlign=middle;resizable=0;points=[];" vertex="1" connectable="0" parent="YGjQhV7c1sGOkSGUrIg3-62">
          <mxGeometry x="0.0188" relative="1" as="geometry">
            <mxPoint x="1" as="offset" />
          </mxGeometry>
        </mxCell>
        <mxCell id="YGjQhV7c1sGOkSGUrIg3-81" value="" style="edgeStyle=orthogonalEdgeStyle;rounded=0;orthogonalLoop=1;jettySize=auto;html=1;" edge="1" parent="WIyWlLk6GJQsqaUBKTNV-1" source="YGjQhV7c1sGOkSGUrIg3-60" target="YGjQhV7c1sGOkSGUrIg3-80">
          <mxGeometry relative="1" as="geometry" />
        </mxCell>
        <mxCell id="YGjQhV7c1sGOkSGUrIg3-87" value="Yes" style="edgeLabel;html=1;align=center;verticalAlign=middle;resizable=0;points=[];" vertex="1" connectable="0" parent="YGjQhV7c1sGOkSGUrIg3-81">
          <mxGeometry x="-0.0423" relative="1" as="geometry">
            <mxPoint y="-3" as="offset" />
          </mxGeometry>
        </mxCell>
        <mxCell id="YGjQhV7c1sGOkSGUrIg3-60" value="Is it second substep?" style="rhombus;whiteSpace=wrap;html=1;rounded=1;" vertex="1" parent="WIyWlLk6GJQsqaUBKTNV-1">
          <mxGeometry x="649" y="275" width="111" height="90" as="geometry" />
        </mxCell>
        <mxCell id="YGjQhV7c1sGOkSGUrIg3-70" style="edgeStyle=orthogonalEdgeStyle;rounded=0;orthogonalLoop=1;jettySize=auto;html=1;exitX=1;exitY=0.5;exitDx=0;exitDy=0;" edge="1" parent="WIyWlLk6GJQsqaUBKTNV-1" source="YGjQhV7c1sGOkSGUrIg3-80">
          <mxGeometry relative="1" as="geometry">
            <mxPoint x="704.5" y="260" as="targetPoint" />
            <mxPoint x="760" y="445" as="sourcePoint" />
            <Array as="points">
              <mxPoint x="800" y="440" />
              <mxPoint x="800" y="260" />
            </Array>
          </mxGeometry>
        </mxCell>
        <mxCell id="YGjQhV7c1sGOkSGUrIg3-71" value="No" style="edgeLabel;html=1;align=center;verticalAlign=middle;resizable=0;points=[];" vertex="1" connectable="0" parent="YGjQhV7c1sGOkSGUrIg3-70">
          <mxGeometry x="-0.2637" y="-2" relative="1" as="geometry">
            <mxPoint y="-15" as="offset" />
          </mxGeometry>
        </mxCell>
        <mxCell id="YGjQhV7c1sGOkSGUrIg3-84" value="" style="edgeStyle=orthogonalEdgeStyle;rounded=0;orthogonalLoop=1;jettySize=auto;html=1;" edge="1" parent="WIyWlLk6GJQsqaUBKTNV-1" source="YGjQhV7c1sGOkSGUrIg3-80" target="YGjQhV7c1sGOkSGUrIg3-83">
          <mxGeometry relative="1" as="geometry" />
        </mxCell>
        <mxCell id="YGjQhV7c1sGOkSGUrIg3-80" value="Is it writeing frequency?" style="rhombus;whiteSpace=wrap;html=1;rounded=1;" vertex="1" parent="WIyWlLk6GJQsqaUBKTNV-1">
          <mxGeometry x="650" y="400" width="110" height="80" as="geometry" />
        </mxCell>
        <mxCell id="YGjQhV7c1sGOkSGUrIg3-85" style="edgeStyle=orthogonalEdgeStyle;rounded=0;orthogonalLoop=1;jettySize=auto;html=1;entryX=0.5;entryY=1;entryDx=0;entryDy=0;" edge="1" parent="WIyWlLk6GJQsqaUBKTNV-1" source="YGjQhV7c1sGOkSGUrIg3-83" target="YGjQhV7c1sGOkSGUrIg3-33">
          <mxGeometry relative="1" as="geometry">
            <Array as="points">
              <mxPoint x="470" y="440" />
              <mxPoint x="470" y="260" />
              <mxPoint x="580" y="260" />
            </Array>
          </mxGeometry>
        </mxCell>
        <mxCell id="YGjQhV7c1sGOkSGUrIg3-86" value="&lt;div&gt;Loop for next step&lt;/div&gt;if not the last iteration" style="edgeLabel;html=1;align=center;verticalAlign=middle;resizable=0;points=[];" vertex="1" connectable="0" parent="YGjQhV7c1sGOkSGUrIg3-85">
          <mxGeometry x="-0.5205" relative="1" as="geometry">
            <mxPoint y="-9" as="offset" />
          </mxGeometry>
        </mxCell>
        <mxCell id="YGjQhV7c1sGOkSGUrIg3-83" value="Write velocity fields and statistics." style="whiteSpace=wrap;html=1;rounded=1;" vertex="1" parent="WIyWlLk6GJQsqaUBKTNV-1">
          <mxGeometry x="490" y="420" width="120" height="40" as="geometry" />
        </mxCell>
      </root>
    </mxGraphModel>
  </diagram>
</mxfile>
